<?xml version="1.0" encoding="UTF-8"?>
<svg width="259px" height="34px" viewBox="0 0 259 34" version="1.1" xmlns="http://www.w3.org/2000/svg" xmlns:xlink="http://www.w3.org/1999/xlink">
    <!-- Generator: Sketch 42 (36781) - http://www.bohemiancoding.com/sketch -->
    <title>logo_jumia_white</title>
    <desc>Created with Sketch.</desc>
    <defs></defs>
    <g id="01_Homepage" stroke="none" stroke-width="1" fill="none" fill-rule="evenodd">
        <g id="logo_jumia_white" fill="#FFFFFF">
            <g id="Group-8" transform="translate(104.556296, 0.000000)">
                <path d="M27.9345061,11.5967408 L24.7630269,9.93316939 L21.5922436,11.5967408 L22.1975939,8.07253673 L19.6325089,5.57804694 L23.1790269,5.06423061 L24.7630269,1.85955714 L26.3508539,5.06423061 L29.897024,5.57804694 L27.3298515,8.07253673 L27.9345061,11.5967408 Z M24.7654623,0.346904082 C20.9225313,0.346904082 17.8077603,3.45339388 17.8077603,7.28359796 C17.8077603,11.1124143 20.9225313,14.2223735 24.7654623,14.2223735 C28.6045663,14.2223735 31.7217726,11.1124143 31.7217726,7.28359796 C31.7217726,3.45339388 28.6045663,0.346904082 24.7654623,0.346904082 L24.7654623,0.346904082 Z" id="Path"></path>
                <path d="M15.9884738,7.28352857 C15.9884738,6.63614082 16.0615333,6.00575306 16.1958236,5.39826327 L11.8908782,4.64367143 L12.1347578,3.00369184 L16.7632526,3.69583469 C17.1306376,2.88399796 17.618049,2.13773265 18.2042647,1.47993673 L11.9792454,0.559855102 C11.4208619,0.477283673 10.8189906,0.793691837 10.7264485,1.41714082 L10.2884393,4.36299796 L5.72569807,3.56295714 C5.01493328,3.43840612 4.33756712,3.91197755 4.21267013,4.62077347 L0.323468142,26.6874673 C0.198571147,27.3959163 0.673458052,28.0714061 1.38422285,28.1963041 L2.32008056,28.3600592 C2.10612052,28.6254673 1.95791406,28.9488143 1.90433708,29.3096306 C1.74360612,30.3917327 2.49264019,31.3988959 3.57774807,31.5591816 C4.66285595,31.7194673 5.6728169,30.9725082 5.83354785,29.8904061 C5.88155839,29.5670592 5.84850765,29.250651 5.74935544,28.9613041 L14.1223248,30.4288551 C13.786251,30.7268755 13.5489815,31.1397327 13.4776615,31.6181612 C13.3172784,32.6999163 14.0663125,33.7074265 15.1514204,33.8673653 C16.2365282,34.027651 17.2464892,33.2806918 17.4072201,32.1985898 C17.4726258,31.7579776 17.3870418,31.330202 17.1897811,30.9666102 L18.6631481,31.2247327 C19.3739129,31.3492837 20.0512791,30.8757122 20.1761761,30.1669163 L22.709602,15.7918551 C18.8590172,14.8662224 15.9884738,11.4041204 15.9884738,7.28352857" id="Fill-4"></path>
            </g>
            <polygon id="Fill-7" points="146.70836 28.1712204 146.70836 12.2141184 139.561747 12.2141184 139.561747 9.46775102 156.636453 9.46775102 156.636453 12.2141184 149.490188 12.2141184 149.490188 28.1712204"></polygon>
            <path d="M174.718929,15.015649 C174.718929,14.4116286 174.67057,13.921751 174.574897,13.5463633 C174.479224,13.1713224 174.295531,12.8781592 174.024515,12.6672204 C173.753151,12.4573224 173.381592,12.3150776 172.911227,12.2418735 C172.440515,12.1686694 171.829946,12.1318939 171.079869,12.1318939 L161.385218,12.1318939 L161.385218,19.1352 L171.079869,19.1352 C171.813943,19.1352 172.41651,19.0987714 172.887222,19.0255673 C173.357934,18.9527102 173.729146,18.8104653 174.00051,18.5998735 C174.271874,18.3896286 174.459046,18.0916082 174.563068,17.7072 C174.666743,17.3224449 174.718929,16.8190367 174.718929,16.1962816 L174.718929,15.015649 Z M172.41651,28.1712204 L161.385218,21.3327102 L161.385218,28.1712204 L158.603389,28.1712204 L158.603389,9.4406898 L171.073606,9.4406898 C172.176805,9.4406898 173.131798,9.51389388 173.939627,9.6599551 C174.746413,9.8067102 175.414386,10.0814857 175.942154,10.4839347 C176.469226,10.8870776 176.860964,11.4501592 177.117021,12.1731796 C177.372381,12.8965469 177.500757,13.8440367 177.500757,15.015649 L177.500757,16.1962816 C177.500757,17.2589551 177.372381,18.1426082 177.117021,18.8468939 C176.860964,19.5518735 176.469226,20.1149551 175.942154,20.5357918 C175.414386,20.9573224 174.746413,21.254649 173.939627,21.4284653 C173.131798,21.6029755 172.176805,21.6893633 171.073606,21.6893633 L166.948875,21.6893633 L177.716457,28.1712204 L172.41651,28.1712204 Z" id="Fill-9"></path>
            <path d="M186.18169,20.947851 L195.582363,20.947851 L190.8822,12.4887898 L186.18169,20.947851 Z M196.99763,23.5294224 L184.767118,23.5294224 L182.200989,28.1711163 L178.915398,28.1711163 L188.795829,10.5389939 C189.01953,10.1178102 189.287415,9.77468776 189.599136,9.50893265 C189.911205,9.24387143 190.354432,9.11064694 190.930211,9.11064694 C191.489638,9.11064694 191.929387,9.24387143 192.249109,9.50893265 C192.568832,9.77468776 192.840544,10.1178102 193.064593,10.5389939 L202.897013,28.1711163 L199.587417,28.1711163 L196.99763,23.5294224 Z" id="Fill-11"></path>
            <path d="M212.153446,27.127698 C211.929397,27.5492286 211.669861,27.8829837 211.374144,28.1300041 C211.078079,28.3773714 210.650855,28.5008816 210.09108,28.5008816 C209.531305,28.5008816 209.099906,28.3773714 208.796187,28.1300041 C208.492468,27.8829837 208.22841,27.5492286 208.004709,27.127698 L198.196294,9.44075918 L201.577906,9.44075918 L210.13909,24.9301878 L218.700275,9.44075918 L222.033877,9.44075918 L212.153446,27.127698 Z" id="Fill-13"></path>
            <path d="M228.580949,28.1712204 C227.397733,28.1712204 226.410734,28.0570776 225.618908,27.827751 C224.827777,27.5994653 224.195986,27.233098 223.724579,26.7293429 C223.253171,26.2259347 222.921272,25.566751 222.729577,24.7521388 C222.537535,23.9375265 222.441862,22.9348735 222.441862,21.7448735 L222.441862,15.8670367 C222.441862,14.6954245 222.537535,13.6972816 222.729577,12.873302 C222.921272,12.0493224 223.253171,11.3859755 223.724579,10.8822204 C224.195986,10.3791592 224.827777,10.0127918 225.618908,9.78346531 C226.410734,9.55517959 227.397733,9.4406898 228.580949,9.4406898 L239.804284,9.4406898 L239.804284,12.1870571 L228.580949,12.1870571 C227.877491,12.1870571 227.310062,12.2467306 226.877967,12.3650367 C226.446568,12.4843837 226.106667,12.6856082 225.85896,12.969751 C225.610906,13.2535469 225.442869,13.6289347 225.355545,14.0959143 C225.267526,14.5625469 225.22369,15.1530367 225.22369,15.8670367 L225.22369,17.4324245 L239.708263,17.4324245 L239.708263,20.1239755 L225.22369,20.1239755 L225.22369,21.7719347 C225.22369,22.5043224 225.267526,23.1041796 225.355545,23.5708122 C225.442869,24.0377918 225.610906,24.4083224 225.85896,24.683098 C226.106667,24.9578735 226.446568,25.1500776 226.877967,25.2600571 C227.310062,25.3700367 227.877491,25.4248531 228.580949,25.4248531 L239.804284,25.4248531 L239.804284,28.1712204 L228.580949,28.1712204 Z" id="Fill-15"></path>
            <path d="M248.317632,28.1712204 C247.134416,28.1712204 246.147416,28.0570776 245.355938,27.827751 C244.56446,27.5994653 243.932669,27.233098 243.461261,26.7293429 C242.989853,26.2259347 242.657954,25.566751 242.46626,24.7521388 C242.274218,23.9375265 242.178544,22.9348735 242.178544,21.7448735 L242.178544,9.4406898 L244.960373,9.4406898 L244.960373,21.7448735 C244.960373,22.4037102 245.011862,22.9664449 245.116233,23.4334245 C245.219908,23.9004041 245.403949,24.280649 245.667659,24.5734653 C245.931717,24.8666286 246.299102,25.0813837 246.770857,25.2187714 C247.242265,25.3561592 247.837874,25.4248531 248.557337,25.4248531 L258.174057,25.4248531 L258.174057,28.1712204 L248.317632,28.1712204 Z" id="Fill-17"></path>
        </g>
    </g>
</svg>